<?xml version="1.0" encoding="UTF-8"?>
<svg id="Camada_1" xmlns="http://www.w3.org/2000/svg" version="1.1" viewBox="0 0 1040.59 385.3">
  <!-- Generator: Adobe Illustrator 30.4.0, SVG Export Plug-In . SVG Version: 2.1.4 Build 226)  -->
  <defs>
    <style>
      .st0 {
        fill: #fff;
      }
    </style>
  </defs>
  <g>
    <path class="st0" d="M42.09,342.55c-14.5-12.13-21.74-30.55-21.74-55.27s6.64-41.11,19.91-52.86c13.27-11.75,33.33-17.62,60.19-17.62h67.51l3.2,37.53h-70.49c-12.21,0-21.32,2.71-27.35,8.12-6.03,5.42-9.04,13.69-9.04,24.83,0,12.05,4,20.98,12.01,26.78,8.01,5.8,20.18,8.7,36.5,8.7,17.85,0,31.16-1.91,39.94-5.72,8.77-3.81,13.16-9.76,13.16-17.85l4.81,33.41c-4.12,6.41-9.19,11.67-15.22,15.79-6.03,4.12-13.01,7.21-20.94,9.27-7.93,2.06-16.86,3.09-26.78,3.09-29.29,0-51.19-6.07-65.68-18.2ZM165.9,206.72c0-15.56-4.16-27.65-12.47-36.27-8.32-8.62-20.1-12.93-35.36-12.93-9.46,0-18.73,1.45-27.81,4.35-9.08,2.9-17.13,6.94-24.14,12.13l-34.1-23.34c9-10.83,20.86-19.26,35.59-25.29,14.72-6.03,31.08-9.04,49.09-9.04,19.68,0,36.54,3.47,50.58,10.41,14.04,6.94,24.72,17.01,32.04,30.21,7.32,13.2,10.98,29.1,10.98,47.72v152.65h-44.4v-150.59Z"/>
    <path class="st0" d="M327.93,295.98c0,5.8,1.26,10.26,3.78,13.39,2.52,3.13,6.06,4.69,10.64,4.69h21.97v44.4h-27.46c-17.7,0-31.39-5.49-41.08-16.48-9.69-10.99-14.53-26.47-14.53-46.46V24.56h46.69v271.42Z"/>
    <path class="st0" d="M398.64,119.76h107.1v42.11h-107.1v-42.11ZM436.52,342.55c-8.93-10.6-13.39-26.28-13.39-47.03V50.64h46.69v245.33c0,5.8,1.14,10.26,3.43,13.39,2.29,3.13,5.64,4.69,10.07,4.69h22.43v44.4h-27.01c-19.22,0-33.3-5.3-42.22-15.91Z"/>
  </g>
  <g>
    <g>
      <path class="st0" d="M661.09,36.57h-42.14v42.52h42.14v-14.43l15.63,3.24v7.94c0,6.14-1.16,10.33-3.46,12.55-2.31,2.22-6.71,3.34-13.19,3.34h-40.1c-6.53,0-10.93-1.11-13.22-3.34-2.29-2.23-3.43-6.41-3.43-12.55v-35.4c0-6.1,1.14-10.27,3.43-12.52,2.29-2.24,6.69-3.37,13.22-3.37h40.1c6.48,0,10.88,1.12,13.19,3.37,2.31,2.25,3.46,6.42,3.46,12.52v6.36l-15.63,2.48v-12.71Z"/>
      <path class="st0" d="M707.55,40.44c0-6.1,1.14-10.27,3.43-12.52,2.29-2.24,6.69-3.37,13.22-3.37h49.45c6.52,0,10.93,1.12,13.22,3.37,2.29,2.25,3.43,6.42,3.43,12.52v35.4c0,6.14-1.14,10.33-3.43,12.55-2.29,2.22-6.69,3.34-13.22,3.34h-49.45c-6.53,0-10.93-1.11-13.22-3.34-2.29-2.23-3.43-6.41-3.43-12.55v-35.4ZM723.19,79.09h51.54v-42.52h-51.54v42.52Z"/>
      <path class="st0" d="M823.1,91.73V24.56h12.65l31.65,40.61,30.95-40.61h12.52v67.18h-14.49v-41.5c0-.8.05-1.82.16-3.05.11-1.23.24-2.61.41-4.13-.85,1.74-1.59,3.17-2.22,4.29-.64,1.12-1.21,2.04-1.72,2.76l-25.23,33.56h-3.11l-25.29-33.68c-.93-1.27-1.73-2.47-2.38-3.59-.66-1.12-1.2-2.21-1.62-3.27.13,1.4.22,2.67.29,3.81.06,1.14.1,2.25.1,3.3v41.5h-12.65Z"/>
      <path class="st0" d="M959.36,24.56v54.53h44.55V24.56h15.57v51.29c0,6.14-1.14,10.33-3.43,12.55-2.29,2.22-6.69,3.34-13.22,3.34h-42.45c-6.48,0-10.88-1.11-13.19-3.34-2.31-2.23-3.46-6.41-3.46-12.55V24.56h15.63Z"/>
    </g>
    <g>
      <path class="st0" d="M608.34,211.14v-80.31h12.76l56.53,47.34c1.92,1.57,3.62,3.05,5.09,4.44,1.47,1.4,2.81,2.83,4.03,4.29-.3-4.51-.51-7.7-.61-9.57-.1-1.88-.15-3.32-.15-4.33v-42.17h16.79v80.31h-12.76l-58.96-49.61c-1.42-1.27-2.66-2.41-3.72-3.42-1.06-1.01-2.05-2.05-2.96-3.12.25,2.48.44,4.83.57,7.03.13,2.2.19,4.12.19,5.73v43.39h-16.79Z"/>
      <path class="st0" d="M743.74,211.14v-80.31h18.69v80.31h-18.69Z"/>
      <path class="st0" d="M870.86,145.18h-50.38v50.83h50.38v-17.25l18.69,3.87v9.5c0,7.34-1.38,12.35-4.14,15.01-2.76,2.66-8.02,3.99-15.77,3.99h-47.94c-7.8,0-13.07-1.33-15.8-3.99-2.74-2.66-4.1-7.66-4.1-15.01v-42.32c0-7.29,1.37-12.28,4.1-14.97,2.74-2.69,8-4.03,15.8-4.03h47.94c7.75,0,13.01,1.34,15.77,4.03,2.76,2.69,4.14,7.67,4.14,14.97v7.6l-18.69,2.96v-15.2Z"/>
      <path class="st0" d="M909.99,211.14l45.44-80.31h18.01l46.05,80.31h-20.97l-9.65-17.55h-50.91l-9.35,17.55h-18.62ZM945.93,179.07h35.18l-17.32-32.67-17.86,32.67Z"/>
    </g>
    <path class="st0" d="M665.13,275.26h-42.14v42.52h42.14v-14.43l15.63,3.24v7.94c0,6.14-1.16,10.33-3.46,12.55-2.31,2.22-6.71,3.34-13.19,3.34h-40.1c-6.53,0-10.93-1.11-13.22-3.34-2.29-2.23-3.43-6.41-3.43-12.55v-35.4c0-6.1,1.14-10.27,3.43-12.52,2.29-2.24,6.69-3.37,13.22-3.37h40.1c6.48,0,10.88,1.12,13.19,3.37,2.31,2.25,3.46,6.42,3.46,12.52v6.36l-15.63,2.48v-12.71ZM629.48,358.01v-7.56c3.47.93,6.58,1.62,9.31,2.07,2.73.44,5.05.67,6.96.67,2.24,0,3.95-.4,5.12-1.21,1.16-.81,1.75-1.99,1.75-3.56,0-1.78-.72-3.07-2.16-3.88-1.44-.81-3.75-1.21-6.93-1.21-.25,0-.68.02-1.27.06-.59.04-1.04.06-1.33.06v-13.03h5.72v5.97h1.02c5.08,0,8.85,1.01,11.31,3.02,2.46,2.01,3.69,5.09,3.69,9.25,0,3.85-1.38,6.83-4.13,8.93-2.75,2.09-6.67,3.14-11.76,3.14-2.29,0-4.92-.23-7.88-.7-2.97-.47-6.1-1.14-9.41-2.03Z"/>
    <path class="st0" d="M700.15,330.43l38.01-67.18h15.06l38.51,67.18h-17.54l-8.07-14.68h-42.58l-7.82,14.68h-15.57ZM765.23,238.14c-.97,5-2.48,8.64-4.51,10.93-2.03,2.29-4.75,3.43-8.14,3.43-.64,0-1.32-.05-2.07-.16-.74-.11-1.54-.29-2.38-.54l-5.28-1.53c-.89-.25-1.64-.42-2.26-.51-.62-.08-1.22-.13-1.81-.13-1.4,0-2.54.35-3.43,1.05-.89.7-1.57,1.77-2.03,3.21h-6.36c.85-4.66,2.28-8.15,4.29-10.45,2.01-2.31,4.65-3.47,7.91-3.47.8,0,1.65.07,2.54.22.89.15,1.82.37,2.8.67l5.66,1.59c.51.13,1.03.22,1.56.28.53.07,1.09.1,1.68.1,1.35,0,2.51-.4,3.46-1.21.95-.8,1.62-1.97,2-3.5h6.36ZM730.21,303.61h29.43l-14.49-27.33-14.94,27.33Z"/>
    <path class="st0" d="M811.94,279.14c0-6.1,1.14-10.27,3.43-12.52,2.29-2.24,6.69-3.37,13.22-3.37l138.79-.32c6.52,0,10.93,1.12,13.22,3.37,2.29,2.25,3.43,6.42,3.43,12.52v35.4c0,6.14-1.14,10.33-3.43,12.55-2.29,2.22-6.69,3.34-13.22,3.34l-138.79.32c-6.53,0-10.93-1.11-13.22-3.34-2.29-2.23-3.43-6.41-3.43-12.55v-35.4ZM827.58,317.78l140.89-.32v-42.52l-140.89.32v42.52Z"/>
    <path class="st0" d="M1014.78,310.28h2.35c1.14,0,1.95.33,2.42.98.47.66.7,1.92.7,3.78v10.55c0,2.03-.25,3.35-.76,3.94-.51.59-2.08.89-4.7.89h-11.63c-1.14,0-1.95-.34-2.42-1.02-.47-.68-.7-1.95-.7-3.81v-10.55c0-1.99.25-3.28.76-3.88.51-.59,2.08-.89,4.7-.89h9.28Z"/>
  </g>
</svg>